<svg width="100" height="100" viewBox="0 0 100 100" fill="none" xmlns="http://www.w3.org/2000/svg">
<path d="M57.6087 50L98.1884 9.23913C100.362 7.06522 100.362 3.62319 98.1884 1.63043C96.0145 -0.543478 92.5725 -0.543478 90.5797 1.63043L50 42.3913L9.23913 1.63043C7.06522 -0.543478 3.62319 -0.543478 1.63043 1.63043C-0.543478 3.80435 -0.543478 7.24638 1.63043 9.23913L42.2101 50L1.63043 90.7609C-0.543478 92.9348 -0.543478 96.3768 1.63043 98.3696C2.71739 99.4565 4.16667 100 5.43478 100C6.7029 100 8.15217 99.4565 9.23913 98.3696L50 57.6087L90.7609 98.3696C91.8478 99.4565 93.2971 100 94.5652 100C95.8333 100 97.2826 99.4565 98.3696 98.3696C100.543 96.1956 100.543 92.7536 98.3696 90.7609L57.6087 50Z" fill="#010101"/>
</svg>
