<svg width="100" height="75" viewBox="0 0 100 75" fill="none" xmlns="http://www.w3.org/2000/svg">
<path d="M97.2222 10.7143H2.77778C1.24366 10.7143 0 9.51504 0 8.03571V2.67857C0 1.19925 1.24366 0 2.77778 0H97.2222C98.7563 0 100 1.19925 100 2.67857V8.03571C100 9.51504 98.7563 10.7143 97.2222 10.7143ZM100 40.1786V34.8214C100 33.3421 98.7563 32.1429 97.2222 32.1429H2.77778C1.24366 32.1429 0 33.3421 0 34.8214V40.1786C0 41.6579 1.24366 42.8571 2.77778 42.8571H97.2222C98.7563 42.8571 100 41.6579 100 40.1786ZM100 72.3214V66.9643C100 65.485 98.7563 64.2857 97.2222 64.2857H2.77778C1.24366 64.2857 0 65.485 0 66.9643V72.3214C0 73.8007 1.24366 75 2.77778 75H97.2222C98.7563 75 100 73.8007 100 72.3214Z" fill="black"/>
</svg>
